<svg width="57" height="48" viewBox="0 0 57 48" fill="none" xmlns="http://www.w3.org/2000/svg">
<path d="M35.0502 0.654984C35.5247 0.787748 35.9684 1.01273 36.3559 1.31707C36.7435 1.62141 37.0672 1.99913 37.3087 2.42866C37.5501 2.85819 37.7046 3.33109 37.7632 3.82034C37.8218 4.30958 37.7834 4.80558 37.6502 5.27998L26.5727 44.7475C26.3042 45.7052 25.6662 46.5171 24.799 47.0045C23.9319 47.4918 22.9067 47.6148 21.9489 47.3462C20.9912 47.0777 20.1793 46.4397 19.692 45.5726C19.2046 44.7055 19.0817 43.6802 19.3502 42.7225L30.4277 3.24998C30.5607 2.77569 30.7859 2.33225 31.0903 1.945C31.3948 1.55775 31.7726 1.23428 32.2021 0.993061C32.6316 0.751845 33.1044 0.597613 33.5935 0.539176C34.0826 0.480739 34.5785 0.519242 35.0527 0.652484L35.0502 0.654984ZM17.4002 10.7425C18.1024 11.4456 18.4969 12.3987 18.4969 13.3925C18.4969 14.3862 18.1024 15.3394 17.4002 16.0425L9.4502 24L17.4052 31.955C18.1084 32.6585 18.5032 33.6125 18.503 34.6071C18.5028 35.6018 18.1074 36.5556 17.4039 37.2587C16.7005 37.9619 15.7465 38.3568 14.7518 38.3565C13.7572 38.3563 12.8034 37.961 12.1002 37.2575L1.4927 26.65C0.790444 25.9469 0.395996 24.9937 0.395996 24C0.395996 23.0062 0.790444 22.0531 1.4927 21.35L12.0977 10.7425C12.4459 10.394 12.8595 10.1176 13.3146 9.92897C13.7697 9.74036 14.2575 9.64329 14.7502 9.64329C15.2429 9.64329 15.7307 9.74036 16.1858 9.92897C16.6409 10.1176 17.0519 10.394 17.4002 10.7425ZM39.6002 16.0425C39.2318 15.6992 38.9362 15.2852 38.7313 14.8252C38.5263 14.3652 38.4161 13.8686 38.4072 13.3651C38.3984 12.8616 38.491 12.3614 38.6796 11.8945C38.8682 11.4276 39.1489 11.0034 39.505 10.6473C39.8611 10.2912 40.2853 10.0105 40.7522 9.82187C41.2191 9.63327 41.7193 9.54064 42.2228 9.54953C42.7263 9.55841 43.2229 9.66862 43.6829 9.87358C44.1429 10.0785 44.5569 10.3741 44.9002 10.7425L55.5077 21.3475C56.2107 22.0507 56.6056 23.0044 56.6056 23.9987C56.6056 24.9931 56.2107 25.9468 55.5077 26.65L44.9027 37.2575C44.5545 37.6058 44.1412 37.8822 43.6862 38.0707C43.2312 38.2593 42.7436 38.3564 42.2511 38.3565C41.7586 38.3567 41.2709 38.2598 40.8158 38.0714C40.3608 37.8831 39.9473 37.6069 39.5989 37.2587C39.2506 36.9106 38.9743 36.4972 38.7857 36.0422C38.5971 35.5873 38.5 35.0996 38.4999 34.6071C38.4998 34.1146 38.5967 33.6269 38.785 33.1719C38.9734 32.7168 39.2495 32.3033 39.5977 31.955L47.5527 24L39.6002 16.0425Z" fill="#495E57"/>
</svg>
