<svg width="57" height="56" viewBox="0 0 57 56" fill="none" xmlns="http://www.w3.org/2000/svg">
<path d="M55.6169 52.6834L47.5002 44.6167V13.5834L43.6669 6.53338C43.3841 5.99587 42.9598 5.54584 42.4399 5.2319C41.92 4.91795 41.3242 4.75201 40.7169 4.75201C40.1095 4.75201 39.5137 4.91795 38.9938 5.2319C38.4739 5.54584 38.0496 5.99587 37.7669 6.53338L34.1669 13.6V31.35L3.68352 1.01671C3.45041 0.781659 3.15257 0.621358 2.82799 0.556242C2.50341 0.491126 2.1668 0.524145 1.86106 0.65109C1.55532 0.778034 1.29431 0.993153 1.1113 1.26902C0.928302 1.54489 0.831599 1.869 0.833524 2.20004V15.6667H4.45019V18.3334H0.833524V29H4.45019V31.6667H0.833524V42.75H4.45019V45.4167H0.833524V53.8667C0.833524 54.3087 1.00912 54.7327 1.32168 55.0452C1.63424 55.3578 2.05816 55.5334 2.50019 55.5334H54.4335C54.7646 55.5353 55.0887 55.4386 55.3645 55.2556C55.6404 55.0726 55.8555 54.8116 55.9825 54.5058C56.1094 54.2001 56.1424 53.8635 56.0773 53.5389C56.0122 53.2143 55.8519 52.9165 55.6169 52.6834ZM14.1669 42.3334V27.2334L29.2835 42.3334H14.1669ZM44.1669 45.85H37.5002V41.8H44.1669V45.85ZM44.1669 39.1834H37.5002V14.4167L40.7335 8.13338L44.1669 14.4334V39.1834Z" fill="#495E57"/>
</svg>
