<?xml version="1.0" encoding="UTF-8" standalone="no"?>
<svg
   xml:space="preserve"
   width="194.02069"
   height="110.35803"
   data-id="lg_9ZsPkGPPQO6P141NLE"
   data-version="1"
   viewBox="0 0 194.02069 110.35803"
   version="1.1"
   id="svg3"
   sodipodi:docname="darkIcon.svg"
   inkscape:version="1.4 (e7c3feb100, 2024-10-09)"
   xmlns:inkscape="http://www.inkscape.org/namespaces/inkscape"
   xmlns:sodipodi="http://sodipodi.sourceforge.net/DTD/sodipodi-0.dtd"
   xmlns="http://www.w3.org/2000/svg"
   xmlns:svg="http://www.w3.org/2000/svg"><sodipodi:namedview
     id="namedview1"
     pagecolor="#ffffff"
     bordercolor="#000000"
     borderopacity="0.25"
     inkscape:showpageshadow="2"
     inkscape:pageopacity="0.0"
     inkscape:pagecheckerboard="0"
     inkscape:deskcolor="#d1d1d1"
     inkscape:zoom="3.8758753"
     inkscape:cx="97.010345"
     inkscape:cy="55.084332"
     inkscape:window-width="1920"
     inkscape:window-height="1008"
     inkscape:window-x="0"
     inkscape:window-y="0"
     inkscape:window-maximized="1"
     inkscape:current-layer="g2" /><defs
     id="defs3" /><g
     data-padding="20"
     id="g3"
     transform="translate(-344.05322,-562.40361)"><g
       transform="matrix(2.25347,0,0,2.25347,-1302.326,-991.446)"
       id="g2"><path
         fill="#f4ce14"
         d="m 758.65927,698.78095 -7.559,7.5725 -7.559,7.5725 7.559,7.5725 7.559,7.5725 c 1.19312,1.01044 1.82802,2.4225 1.88874,3.85882 0.0607,1.43633 -0.45274,2.89692 -1.55632,4.00446 -1.10358,1.10754 -2.56233,1.62622 -3.99887,1.57064 -1.43653,-0.0556 -2.85085,-0.68542 -3.86555,-1.87492 l -9.496,-9.469 -9.496,-9.469 c -1.02527,-1.04599 -1.53791,-2.40599 -1.53791,-3.766 0,-1.36 0.51264,-2.72001 1.53791,-3.766 l 9.469,-9.4825 9.469,-9.4825 c 2.52867,-2.52 5.683,-1.8835 7.573,0.013 1.89,1.8965 2.51566,5.053 -0.013,7.573 m 56.49,11.298 -9.429,-9.442 -9.429,-9.442 c -1.04762,-1.03412 -2.41356,-1.55119 -3.7795,-1.55119 -1.36594,0 -2.73188,0.51707 -3.7795,1.55119 -1.02527,1.04599 -1.53791,2.406 -1.53791,3.766 0,1.36001 0.51264,2.72001 1.53791,3.766 l 7.5455,7.559 7.5455,7.559 -7.545,7.5455 -7.545,7.5455 c -2.51966,2.51033 -1.89675,5.65525 -0.014,7.545 1.88275,1.88975 5.02534,2.52433 7.545,0.014 l 9.442,-9.442 9.442,-9.442 c 1.04914,-1.03613 1.57371,-2.40107 1.57371,-3.766 0,-1.36494 -0.52457,-2.72987 -1.57371,-3.766 m -37.257,-20.121 c -1.46785,-0.25989 -2.90141,0.10182 -4.03124,0.89578 -1.12982,0.79395 -1.9559,2.02014 -2.20876,3.48922 l -3.255,18.5205 -3.255,18.5205 c -0.25692,1.46183 0.10222,2.88967 0.89092,4.01695 0.78871,1.12729 2.00698,1.95402 3.46833,2.21367 1.46136,0.25965 2.88986,-0.0968 4.01861,-0.88343 1.12876,-0.7866 1.95777,-2.00333 2.22014,-3.46419 l 3.282,-18.534 3.282,-18.534 c 0.26071,-1.46358 -0.0969,-2.89415 -0.8856,-4.02366 -0.78873,-1.12952 -2.00859,-1.95798 -3.4724,-2.21734"
         id="path2"
         style="fill:#f4ce14;fill-opacity:1"
         inkscape:export-filename="path2.png"
         inkscape:export-xdpi="96"
         inkscape:export-ydpi="96"
         sodipodi:nodetypes="cccccssscccscccsccccscscccccscccsccscccssscccsc" /></g><g
       id="layer1" /><g
       id="layer2" /></g></svg>
