<?xml version="1.0" encoding="UTF-8" standalone="no"?>
<svg
   xml:space="preserve"
   width="1363.0173"
   height="119.27612"
   data-id="lg_9ZsPkGPPQO6P141NLE"
   data-version="1"
   viewBox="0 0 1363.0173 119.27612"
   version="1.1"
   id="svg3"
   xmlns="http://www.w3.org/2000/svg"
   xmlns:svg="http://www.w3.org/2000/svg"><defs
     id="defs3" /><g
     data-padding="20"
     id="g3"
     transform="translate(-344.05323,-557.94458)"><g
       transform="matrix(2.25347,0,0,2.25347,-1302.326,-991.446)"
       id="g2"><path
         fill="#f4ce14"
         d="m 758.65927,698.78095 -15.118,15.145 15.118,15.145 c 2.38624,2.02089 2.53958,5.64821 0.33242,7.86328 -2.20716,2.21508 -5.83501,2.07472 -7.86442,-0.30428 l -18.992,-18.938 c -2.05055,-2.09198 -2.05055,-5.44002 0,-7.532 l 18.938,-18.965 c 5.05733,-5.04 12.61733,2.546 7.56,7.586 m 56.49,11.298 -18.858,-18.884 c -2.09524,-2.06825 -5.46376,-2.06825 -7.559,0 -2.05055,2.09198 -2.05055,5.44002 0,7.532 l 15.091,15.118 -15.09,15.091 c -5.03933,5.02066 2.49167,12.57966 7.531,7.559 l 18.884,-18.884 c 2.09828,-2.07226 2.09828,-5.45974 0,-7.532 m -37.257,-20.121 c -2.93569,-0.51978 -5.73428,1.44685 -6.24,4.385 l -6.51,37.041 c -0.51384,2.92367 1.43655,5.71133 4.35925,6.23062 2.92271,0.5193 5.71401,-1.42589 6.23875,-4.34762 l 6.564,-37.068 c 0.52143,-2.92715 -1.43037,-5.72228 -4.358,-6.241"
         id="path2"
         style="fill:#495e57;fill-opacity:1" /></g><g
       id="layer1" /><g
       id="layer2" /></g><g
     id="layer3"
     transform="translate(-344.05323,-690.36196)"><path
       d="m 634.95965,800.42139 c -0.21025,2.91448 -1.7502,4.9276 -4.61961,6.0393 -2.86941,1.11171 -8.02235,1.66757 -15.45881,1.66757 -7.45148,0 -13.67105,-0.68355 -18.65873,-2.05066 -4.98767,-1.35208 -7.48152,-3.08725 -7.48152,-5.20551 0,-2.41872 4.48441,-17.84749 13.45322,-46.28628 8.95378,-28.42376 14.08419,-44.79898 15.3912,-49.12564 0.51079,-1.32205 4.56704,-2.40371 12.16874,-3.245 7.58669,-0.85632 15.73672,-1.28448 24.45015,-1.28448 8.69839,0 13.50579,1.50983 14.4222,4.52948 19.01929,63.20233 28.52893,95.30675 28.52893,96.3133 0,1.00656 -0.60093,2.0131 -1.80277,3.01965 -2.82434,2.22343 -8.41295,3.33514 -16.76582,3.33514 -17.81744,0 -26.92897,-2.11826 -27.33459,-6.35479 l -1.05913,-9.80259 H 635.7033 Z m 3.92104,-37.13718 h 8.15756 l -2.276,-27.17685 h -3.3126 z m 112.17774,41.21596 v -41.98214 c 0,-7.54162 -0.30046,-13.02506 -0.90139,-16.45033 -0.60093,-3.42528 -2.06569,-5.13792 -4.39427,-5.13792 -2.01309,0 -3.01965,1.35959 -3.01965,4.07878 v 59.49161 c 0,1.0967 -2.91448,1.97555 -8.74346,2.63656 -5.84399,0.66101 -11.83072,0.99153 -17.96016,0.99153 -6.14447,0 -10.02043,-0.27792 -11.6279,-0.83378 -1.6225,-0.55587 -2.43375,-1.4873 -2.43375,-2.79431 V 699.87156 c 0,-2.11826 2.92201,-4.23652 8.766,-6.35479 5.84399,-2.10323 11.98095,-3.15485 18.41085,-3.15485 6.74538,0 11.02697,1.25444 12.84478,3.76329 0.60093,0.81125 0.90139,1.66757 0.90139,2.56896 v 22.19668 l -1.66757,10.41103 h 1.05913 c 1.41218,-2.11826 3.62808,-3.98114 6.64773,-5.58861 5.63368,-3.01965 11.77815,-4.52947 18.43339,-4.52947 9.55471,0 16.02217,3.04969 19.40238,9.14909 3.36517,6.08437 5.04777,15.96959 5.04777,29.65566 v 46.51162 c 0,1.0967 -2.94454,1.97555 -8.8336,2.63656 -5.88906,0.66101 -11.87579,0.99153 -17.96016,0.99153 -6.0994,0 -9.95283,-0.27792 -11.5603,-0.83378 -1.60747,-0.55587 -2.41121,-1.4873 -2.41121,-2.79431 m 186.92533,-46.1736 v 46.19614 c 0,1.09669 -2.84687,1.97555 -8.54065,2.63656 -5.69377,0.66101 -11.58283,0.99152 -17.6672,0.99152 -6.08437,0 -10.03545,-0.27792 -11.85326,-0.83378 -1.80277,-0.55586 -2.70416,-1.48729 -2.70416,-2.7943 V 762.6983 c 0,-14.39217 -1.46475,-21.58824 -4.39427,-21.58824 -0.70608,0 -1.41218,0.30046 -2.11826,0.90139 -0.69107,0.60093 -1.03659,1.66006 -1.03659,3.17739 v 59.33387 c 0,1.09669 -2.84688,1.97555 -8.54066,2.63656 -5.69377,0.66101 -11.60537,0.99152 -17.7348,0.99152 -6.14447,0 -10.09555,-0.27792 -11.85326,-0.83378 -1.7577,-0.55586 -2.63656,-1.48729 -2.63656,-2.7943 V 762.6983 c 0,-11.17721 -0.70608,-17.87001 -2.11826,-20.07841 -0.70608,-1.00656 -1.61499,-1.50983 -2.7267,-1.50983 -1.90794,0 -2.8619,1.35959 -2.8619,4.07878 v 59.33387 c 0,1.09669 -2.86941,1.97555 -8.60826,2.63656 -5.73884,0.66101 -11.65044,0.99152 -17.73481,0.99152 -6.0994,0 -10.02794,-0.27792 -11.78565,-0.83378 -1.7577,-0.55586 -2.63656,-1.48729 -2.63656,-2.7943 v -74.43212 c 0,-2.11826 2.89195,-4.23652 8.67586,-6.35478 5.78392,-2.10323 11.89833,-3.15486 18.34325,-3.15486 6.44492,0 10.07301,1.85535 10.88426,5.56607 l 1.35208,6.64774 h 1.05913 c 2.91448,-5.73885 7.74444,-9.8101 14.48981,-12.21381 2.82435,-0.91642 6.44493,-1.37462 10.86173,-1.37462 8.86364,0 15.30857,4.52948 19.33477,13.58843 1.30702,-3.01965 4.57455,-6.0393 9.8026,-9.05895 5.24308,-3.01965 11.0345,-4.52948 17.37425,-4.52948 9.96034,0 16.67568,3.09476 20.14602,9.2843 3.48538,6.18954 5.22805,16.13484 5.22805,29.83594 m 53.29459,15.66162 h -4.98016 c 0,6.55009 3.11726,9.82513 9.35186,9.82513 3.6207,0 8.35305,-1.23191 14.19695,-3.69569 5.829,-2.46379 8.8938,-3.69569 9.1942,-3.69569 1.9228,0 4.4393,2.8619 7.5491,8.58572 3.1249,5.73884 4.6872,9.96784 4.6872,12.68703 0,3.93607 -4.0263,6.91065 -12.0786,8.92374 -8.0523,2.0131 -15.9246,3.01965 -23.61645,3.01965 -7.70676,0 -14.15176,-0.60843 -19.33466,-1.82531 -5.183,-1.20184 -9.4121,-2.7342 -12.6871,-4.59708 -3.2749,-1.86287 -6.1445,-4.15388 -8.6082,-6.87308 -2.4637,-2.71919 -4.2967,-5.31068 -5.4985,-7.77447 -1.2169,-2.46379 -2.1784,-5.20552 -2.8844,-8.22517 -1.0067,-4.43183 -1.5099,-9.01388 -1.5099,-13.74616 0,-18.31321 4.7848,-30.94765 14.3546,-37.90337 4.7323,-3.51541 10.0129,-5.9792 15.8419,-7.39138 5.844,-1.41218 12.7396,-2.11826 20.68686,-2.11826 25.46425,0 38.19635,8.85614 38.19635,26.56841 0,18.82398 -14.287,28.23598 -42.86105,28.23598 m -5.29556,-22.03894 v 9.96034 c 2.91436,0 5.30296,-1.15677 7.16596,-3.47034 1.8629,-2.31357 2.7943,-5.13041 2.7943,-8.45052 0,-6.0393 -1.5549,-9.05895 -4.6647,-9.05895 -3.53046,0 -5.29556,3.67316 -5.29556,11.01947 m 83.62621,57.53109 c -3.7256,0 -7.196,-0.55586 -10.411,-1.66757 -3.2299,-1.1117 -5.8741,-2.47131 -7.9322,-4.07878 -2.0581,-1.60747 -3.846,-3.7708 -5.3633,-6.48999 -1.5024,-2.7192 -2.6591,-5.31069 -3.4703,-7.77447 -0.8113,-2.46379 -1.4123,-5.50597 -1.8028,-9.12656 -0.6159,-5.33322 -0.9239,-11.42509 -0.9239,-18.27564 0,-13.98654 2.5689,-24.63042 7.7068,-31.93167 5.138,-7.30124 12.1839,-10.95186 21.1376,-10.95186 9.1642,0 15.8043,2.16333 19.9207,6.48999 0.9165,1.00656 1.6225,2.21591 2.1182,3.62809 h 1.2169 l -1.8253,-10.41103 v -18.88408 c 0,-2.2084 2.8243,-4.37173 8.473,-6.49 5.6337,-2.10323 11.7181,-3.15485 18.2531,-3.15485 6.8506,0 11.2298,1.30701 13.1378,3.92103 0.706,1.00656 1.0591,2.0131 1.0591,3.01965 v 107.19757 c 0,1.0967 -2.7943,1.97555 -8.3829,2.63656 -5.5886,0.66101 -10.9744,0.99153 -16.1574,0.99153 -5.183,0 -8.503,-0.18028 -9.9603,-0.54083 -1.4573,-0.34553 -2.3587,-0.72111 -2.7042,-1.12674 -0.3605,-0.40562 -0.5933,-1.05913 -0.6986,-1.96052 l -1.1943,-8.60825 h -1.2169 c -0.9014,3.51541 -2.7116,6.48249 -5.4308,8.9012 -3.4253,3.12482 -8.6083,4.68722 -15.549,4.68722 m 16.901,-22.03894 c 1.6225,0 2.832,-1.00655 3.6281,-3.01965 v -40.31457 c 0,-1.00656 -0.5257,-1.78775 -1.5774,-2.34361 -1.0666,-0.55587 -1.9981,-0.83379 -2.7943,-0.83379 -3.4253,0 -5.1379,7.84958 -5.1379,23.54877 0,8.35286 0.4807,14.27196 1.4422,17.75734 0.9465,3.47034 2.4263,5.20551 4.4393,5.20551 m 127.907,16.02218 c 0,1.30701 -3.0947,2.36614 -9.2843,3.17739 -6.1896,0.79622 -12.3564,1.19434 -18.501,1.19434 -6.1294,0 -10.0505,-0.35305 -11.7631,-1.05913 -1.7126,-0.70608 -2.5689,-1.81028 -2.5689,-3.3126 v -92.55002 c 0,-2.61402 2.8468,-4.92759 8.5406,-6.94068 5.6787,-2.0131 12.2438,-3.01965 19.6953,-3.01965 6.1446,0 10.1181,1.20184 11.9209,3.60555 1.307,1.71264 1.9605,3.27503 1.9605,4.68722 v 24.92337 h 1.2169 c 0,-0.51079 1.5098,-4.69472 4.5295,-12.55182 5.7389,-14.78277 9.9152,-22.17415 12.5292,-22.17415 4.9277,0 11.8758,1.45725 20.8446,4.37173 4.3267,1.41218 8.0449,3.44781 11.1547,6.10691 3.1249,2.67412 4.6872,5.61864 4.6872,8.8336 0,2.01309 -2.0355,5.91159 -6.1069,11.69551 -4.0862,5.79892 -10.2533,13.52832 -18.501,23.1882 1.9081,2.0131 4.3267,4.58205 7.2562,7.70687 2.9144,3.10979 6.8129,7.75944 11.6955,13.94898 4.8826,6.18954 7.3238,10.59881 7.3238,13.22787 0,2.61403 -2.3661,5.65621 -7.0984,9.12655 -4.7323,3.47035 -9.765,6.28718 -15.0983,8.45052 -5.3333,2.16333 -9.3068,3.24499 -11.9208,3.24499 -1.7127,0 -4.0563,-2.59149 -7.0309,-7.77447 -2.9745,-5.18298 -6.5727,-12.95745 -10.7941,-23.32341 l -4.6872,5.5886 z m 111.2764,1.03659 v -41.98214 c 0,-7.54162 -0.3004,-13.02506 -0.9014,-16.45033 -0.601,-3.42528 -2.0581,-5.13792 -4.3718,-5.13792 -2.013,0 -3.0196,1.35959 -3.0196,4.07878 v 59.49161 c 0,1.0967 -2.9221,1.97555 -8.766,2.63656 -5.8439,0.66101 -11.8307,0.99153 -17.9602,0.99153 -6.1445,0 -10.0205,-0.27792 -11.6279,-0.83378 -1.6074,-0.55587 -2.4112,-1.4873 -2.4112,-2.79431 V 699.87156 c 0,-2.11826 2.9144,-4.23652 8.7435,-6.35479 5.8439,-2.10323 11.9884,-3.15485 18.4334,-3.15485 6.7453,0 11.0194,1.25444 12.8222,3.76329 0.601,0.81125 0.9014,1.66757 0.9014,2.56896 v 22.19668 l -1.645,10.41103 h 1.0591 c 1.3971,-2.11826 3.6055,-3.98114 6.6252,-5.58861 5.6488,-3.01965 11.7931,-4.52947 18.4334,-4.52947 9.5547,0 16.0221,3.04969 19.4024,9.14909 3.3651,6.08437 5.0477,15.96959 5.0477,29.65566 v 46.51162 c 0,1.0967 -2.9446,1.97555 -8.8336,2.63656 -5.889,0.66101 -11.8758,0.99153 -17.9601,0.99153 -6.0844,0 -9.9378,-0.27792 -11.5603,-0.83378 -1.6074,-0.55587 -2.4112,-1.4873 -2.4112,-2.79431 m 78.0602,5.00271 c -9.1642,0 -16.3602,-2.16334 -21.5883,-6.49 -2.1182,-1.8178 -3.9587,-4.4844 -5.521,-7.99982 -1.5474,-3.53044 -2.3211,-7.66179 -2.3211,-12.39408 0,-4.73229 1.1268,-8.85614 3.3802,-12.37155 2.2686,-3.53045 5.0102,-6.24962 8.2252,-8.15756 3.2299,-1.90795 7.0083,-3.47035 11.335,-4.68722 6.535,-1.71264 13.731,-2.56896 21.5882,-2.56896 h 4.9802 c 0,-4.11634 -1.4046,-7.03082 -4.214,-8.74346 -1.2169,-0.70608 -3.0573,-1.05913 -5.521,-1.05913 -2.4637,0 -5.4309,0.65351 -8.9012,1.96052 -3.4704,1.30701 -6.3699,2.64406 -8.6984,4.01117 -2.3137,1.35209 -3.8686,2.02813 -4.6647,2.02813 -1.8179,0 -4.289,-2.38868 -7.4139,-7.16604 -3.1098,-4.77735 -4.6647,-9.13405 -4.6647,-13.07012 0,-1.30702 1.8629,-3.01965 5.5886,-5.13791 3.7257,-2.10324 8.9839,-4.03372 15.7743,-5.79142 6.7904,-1.77274 13.4081,-2.6591 19.8531,-2.6591 6.4449,0 12.0035,0.53333 16.6756,1.59997 4.6873,1.05162 8.5107,2.32857 11.4702,3.8309 2.9746,1.51732 5.491,3.53044 7.5491,6.0393 2.0732,2.52388 3.6356,4.79238 4.6872,6.80547 1.0517,2.0131 1.8328,4.62712 2.3437,7.84208 0.706,3.72573 1.0591,8.3078 1.0591,13.74617 v 45.45249 c 0,1.09669 -2.6967,1.97555 -8.09,2.63656 -5.3783,0.66101 -10.7114,0.99152 -15.9996,0.99152 -5.2882,0 -8.7058,-0.15774 -10.2533,-0.47322 -1.5623,-0.30046 -2.4939,-0.64601 -2.7943,-1.0366 -0.3004,-0.40563 -0.5559,-1.11171 -0.7662,-2.11826 l -1.1943,-8.60826 h -1.2169 c -2.5239,9.05895 -9.4195,13.58843 -20.6868,13.58843 m 20.2361,-25.05859 v -17.66721 c -2.614,0 -4.7323,1.1042 -6.3548,3.31261 -1.6074,2.22343 -2.4112,4.73979 -2.4112,7.54912 0,6.64023 1.5098,9.96034 4.5295,9.96034 1.307,0 2.3436,-0.32299 3.1098,-0.96899 0.7511,-0.66102 1.1267,-1.38965 1.1267,-2.18587 m 90.1163,-87.14169 v 107.19757 c 0,1.0967 -2.8694,1.97555 -8.6083,2.63656 -5.7389,0.66101 -11.6504,0.99153 -17.7348,0.99153 -6.0995,0 -10.0279,-0.27792 -11.7856,-0.83378 -1.7577,-0.55587 -2.6366,-1.4873 -2.6366,-2.79431 v -104.4934 c 0,-2.2084 2.8394,-4.37173 8.5181,-6.49 5.6939,-2.10323 11.8082,-3.15485 18.3433,-3.15485 9.2692,0 13.9039,2.31357 13.9039,6.94068 m 53.2945,76.68559 h -4.9801 c 0,6.55009 3.1172,9.82513 9.3519,9.82513 3.6206,0 8.3529,-1.23191 14.1968,-3.69569 5.844,-2.46379 8.9163,-3.69569 9.2167,-3.69569 1.908,0 4.4243,2.8619 7.5492,8.58572 3.1097,5.73884 4.6646,9.96784 4.6646,12.68703 0,3.93607 -4.0262,6.91065 -12.0786,8.92374 -8.0523,2.0131 -15.9246,3.01965 -23.6163,3.01965 -7.7069,0 -14.1518,-0.60843 -19.3348,-1.82531 -5.183,-1.20184 -9.4121,-2.7342 -12.687,-4.59708 -3.2601,-1.86287 -6.122,-4.15388 -8.5858,-6.87308 -2.4788,-2.71919 -4.3192,-5.31068 -5.521,-7.77447 -1.2017,-2.46379 -2.1559,-5.20552 -2.8619,-8.22517 -1.0066,-4.43183 -1.5098,-9.01388 -1.5098,-13.74616 0,-18.31321 4.7774,-30.94765 14.3321,-37.90337 4.7323,-3.51541 10.0205,-5.9792 15.8644,-7.39138 5.8291,-1.41218 12.7247,-2.11826 20.6869,-2.11826 25.4642,0 38.1963,8.85614 38.1963,26.56841 0,18.82398 -14.2945,28.23598 -42.8836,28.23598 m -5.2956,-22.03894 v 9.96034 c 2.9295,0 5.3256,-1.15677 7.1886,-3.47034 1.8629,-2.31357 2.7943,-5.13041 2.7943,-8.45052 0,-6.0393 -1.5624,-9.05895 -4.6873,-9.05895 -3.5305,0 -5.2956,3.67316 -5.2956,11.01947 m 83.6713,57.53109 c -3.7256,0 -7.196,-0.55586 -10.411,-1.66757 -3.2299,-1.1117 -5.8741,-2.47131 -7.9322,-4.07878 -2.0581,-1.60747 -3.846,-3.7708 -5.3633,-6.48999 -1.5024,-2.7192 -2.6591,-5.31069 -3.4703,-7.77447 -0.7962,-2.46379 -1.3972,-5.50597 -1.8028,-9.12656 -0.601,-5.33322 -0.9014,-11.42509 -0.9014,-18.27564 0,-13.98654 2.5615,-24.63042 7.6844,-31.93167 5.1379,-7.30124 12.1838,-10.95186 21.1375,-10.95186 9.1642,0 15.8119,2.16333 19.9432,6.48999 0.9014,1.00656 1.6,2.21591 2.0957,3.62809 h 1.2169 l -1.8028,-10.41103 v -18.88408 c 0,-2.2084 2.8169,-4.37173 8.4505,-6.49 5.6337,-2.10323 11.7255,-3.15485 18.2757,-3.15485 6.8354,0 11.2072,1.30701 13.1152,3.92103 0.706,1.00656 1.0591,2.0131 1.0591,3.01965 v 107.19757 c 0,1.0967 -2.7868,1.97555 -8.3604,2.63656 -5.5886,0.66101 -10.9744,0.99153 -16.1573,0.99153 -5.183,0 -8.5107,-0.18028 -9.9829,-0.54083 -1.4573,-0.34553 -2.3587,-0.72111 -2.7042,-1.12674 -0.3605,-0.40562 -0.5859,-1.05913 -0.676,-1.96052 l -1.2169,-8.60825 h -1.2169 c -0.9013,3.51541 -2.7116,6.48249 -5.4308,8.9012 -3.4253,3.12482 -8.6083,4.68722 -15.549,4.68722 m 16.9236,-22.03894 c 1.6074,0 2.8094,-1.00655 3.6055,-3.01965 v -40.31457 c 0,-1.00656 -0.5257,-1.78775 -1.5774,-2.34361 -1.0517,-0.55587 -1.983,-0.83379 -2.7943,-0.83379 -3.4253,0 -5.1379,7.84958 -5.1379,23.54877 0,8.35286 0.4807,14.27196 1.4422,17.75734 0.9616,3.47034 2.4489,5.20551 4.4619,5.20551"
       style="fill:#495e57;fill-opacity:1;stroke-width:2.25347"
       id="path1" /></g></svg>
