<svg width="80" height="80" viewBox="0 0 80 80" fill="none" xmlns="http://www.w3.org/2000/svg">
<g clip-path="url(#clip0_16_25)">
<path d="M66.7188 0H13.2812C5.94622 0 0 6.08893 0 13.6V66.272C0 73.7831 5.94622 79.872 13.2812 79.872H66.7188C74.0538 79.872 80 73.7831 80 66.272V13.6C80 6.08893 74.0538 0 66.7188 0Z" fill="#330000"/>
<path d="M38.7671 47.9328H26.3702L23.8477 55.9561C23.8134 56.1025 23.7303 56.232 23.6127 56.3223C23.4951 56.4126 23.3505 56.4581 23.2037 56.4509H16.9246C16.5667 56.4509 16.4415 56.2493 16.549 55.8461L27.2824 24.1923C27.3897 23.8627 27.497 23.4872 27.6043 23.0659C27.7449 22.3325 27.8168 21.5875 27.819 20.8403C27.8117 20.788 27.8163 20.7347 27.8326 20.6847C27.8489 20.6346 27.8764 20.589 27.9128 20.5517C27.9493 20.5143 27.9937 20.4862 28.0426 20.4695C28.0915 20.4527 28.1435 20.4479 28.1946 20.4553H36.7277C36.9777 20.4553 37.1208 20.5471 37.1571 20.7305L49.3393 55.9011C49.4466 56.268 49.3393 56.4513 49.0174 56.4509H42.0405C41.9208 56.4643 41.8003 56.4326 41.7016 56.3619C41.6029 56.2911 41.5327 56.1861 41.504 56.0662L38.7671 47.9328ZM28.3021 41.0086H36.7815L36.6605 40.6L36.4665 39.9529L36.328 39.4985L36.1071 38.783L35.6374 37.2768L35.2243 35.9414L34.1515 32.463C33.8844 31.5983 33.6282 30.7302 33.3827 29.8589L33.1865 29.1517L32.9571 28.3155L32.6071 27.0195L32.5415 26.7753H32.488C32.2194 28.0944 31.8924 29.4003 31.508 30.6889L30.7118 33.3117L30.2737 34.7606L29.8315 36.2275C29.7517 36.4925 29.672 36.7544 29.5924 37.0134L29.3549 37.7808L29.1187 38.5302L28.8837 39.2611L28.6499 39.9737C28.5724 40.2084 28.495 40.4399 28.4177 40.6681L28.3021 41.0086ZM56.5836 26.2806C56.0363 26.303 55.4905 26.207 54.9819 25.9986C54.4733 25.7903 54.0133 25.4744 53.6321 25.0717C53.2521 24.6512 52.9569 24.158 52.7635 23.6205C52.5701 23.083 52.4822 22.5116 52.5049 21.9392C52.4854 21.3725 52.5829 20.808 52.791 20.2825C52.9991 19.757 53.313 19.2824 53.7124 18.8896C54.4827 18.1323 55.5086 17.7086 56.5765 17.7065L56.6908 17.7078C57.979 17.7078 58.9898 18.1016 59.7233 18.8893C60.0935 19.2986 60.3812 19.7787 60.5699 20.3021C60.7587 20.8254 60.8448 21.3817 60.8233 21.9392C60.8461 22.5139 60.7556 23.0875 60.5574 23.6257C60.3592 24.1639 60.0573 24.6557 59.6696 25.072C59.2783 25.4668 58.8139 25.7775 58.3036 25.9858C57.7934 26.1941 57.2476 26.2957 56.6983 26.2848L56.5836 26.2806ZM52.8805 55.9011V29.6329C52.8803 29.3031 53.0234 29.1382 53.3099 29.1382H59.9111C60.1972 29.1382 60.3403 29.3031 60.3405 29.6329V55.9011C60.3405 56.268 60.1974 56.4513 59.9111 56.4509H53.3637C53.0587 56.4509 52.8981 56.2864 52.8821 55.9574L52.8805 55.9011Z" fill="#FF9A00"/>
</g>
<defs>
<clipPath id="clip0_16_25">
<rect width="80" height="80" fill="white"/>
</clipPath>
</defs>
</svg>
