<?xml version="1.0" encoding="UTF-8" standalone="no"?>
<svg
   width="80"
   height="80"
   viewBox="0 0 80 80"
   fill="none"
   version="1.1"
   id="svg6"
   sodipodi:docname="css.svg"
   inkscape:version="1.4 (e7c3feb100, 2024-10-09)"
   xmlns:inkscape="http://www.inkscape.org/namespaces/inkscape"
   xmlns:sodipodi="http://sodipodi.sourceforge.net/DTD/sodipodi-0.dtd"
   xmlns="http://www.w3.org/2000/svg"
   xmlns:svg="http://www.w3.org/2000/svg">
  <defs
     id="defs6" />
  <sodipodi:namedview
     id="namedview6"
     pagecolor="#ffffff"
     bordercolor="#000000"
     borderopacity="0.25"
     inkscape:showpageshadow="2"
     inkscape:pageopacity="0.0"
     inkscape:pagecheckerboard="0"
     inkscape:deskcolor="#d1d1d1"
     inkscape:zoom="10.804393"
     inkscape:cx="35.032047"
     inkscape:cy="28.923421"
     inkscape:window-width="1920"
     inkscape:window-height="1008"
     inkscape:window-x="0"
     inkscape:window-y="0"
     inkscape:window-maximized="1"
     inkscape:current-layer="svg6" />
  <g
     id="g6"
     transform="matrix(1.1428571,0,0,1.1428571,-5.7197864,-5.7142857)">
    <path
       d="M 14.7551,68.0025 9.14014,5 H 70.8601 L 65.2376,67.9925 39.9626,75 Z"
       fill="#1572b6"
       id="path1" />
    <path
       d="m 40,69.645 20.425,-5.6625 4.805,-53.83 H 40 Z"
       fill="#33a9dc"
       id="path2" />
    <path
       d="M 40,32.9775 H 50.225 L 50.93,25.065 H 40 V 17.3375 H 59.375 L 59.19,19.41 57.2925,40.705 H 40 Z"
       fill="#ffffff"
       id="path3" />
    <path
       d="m 40.0476,53.045 -0.035,0.01 -8.605,-2.325 -0.55,-6.1625 h -7.7575 l 1.0825,12.1325 15.8275,4.395 0.0375,-0.01 z"
       fill="#ebebeb"
       id="path4" />
    <path
       d="M 49.5675,40.3775 48.6375,50.725 40.02,53.05 v 8.04 L 55.86,56.7 55.9775,55.395 57.32,40.3775 Z"
       fill="#ffffff"
       id="path5" />
    <path
       d="m 40.0274,17.3375 v 7.7275 h -18.665 l -0.155,-1.7375 -0.3525,-3.9175 -0.185,-2.0725 z m -0.0275,15.64 v 7.7275 h -8.4975 l -0.155,-1.7375 -0.35,-3.9175 -0.185,-2.0725 z"
       fill="#ebebeb"
       id="path6" />
  </g>
</svg>
