<svg width="80" height="80" viewBox="0 0 80 80" fill="none" xmlns="http://www.w3.org/2000/svg">
<path d="M14.7552 68.0025L9.1377 5H70.8627L65.2377 67.9925L39.9627 75L14.7552 68.0025Z" fill="#E44F26"/>
<path d="M40 69.645L60.425 63.9825L65.23 10.1525H40V69.645Z" fill="#F1662A"/>
<path d="M40 33.5175H29.775L29.07 25.605H40V17.8775H20.625L20.81 19.9525L22.7075 41.245H40V33.5175ZM40 53.585L39.965 53.595L31.36 51.2725L30.81 45.11H23.0525L24.135 57.24L39.965 61.635L40 61.625V53.585Z" fill="#EBEBEB"/>
<path d="M39.9727 33.5175V41.245H49.4877L48.5927 51.2675L39.9727 53.5925V61.6325L55.8152 57.24L55.9302 55.935L57.7452 35.5925L57.9352 33.5175H39.9727ZM39.9727 17.8775V25.605H58.6377L58.7927 23.87L59.1452 19.9525L59.3302 17.8775H39.9727Z" fill="white"/>
</svg>
