<?xml version="1.0" encoding="UTF-8" standalone="no"?>
<svg
   width="80"
   height="80"
   viewBox="0 0 80 80"
   fill="none"
   version="1.1"
   id="svg2"
   sodipodi:docname="js.svg"
   inkscape:version="1.4 (e7c3feb100, 2024-10-09)"
   xmlns:inkscape="http://www.inkscape.org/namespaces/inkscape"
   xmlns:sodipodi="http://sodipodi.sourceforge.net/DTD/sodipodi-0.dtd"
   xmlns="http://www.w3.org/2000/svg"
   xmlns:svg="http://www.w3.org/2000/svg">
  <defs
     id="defs2" />
  <sodipodi:namedview
     id="namedview2"
     pagecolor="#ffffff"
     bordercolor="#000000"
     borderopacity="0.25"
     inkscape:showpageshadow="2"
     inkscape:pageopacity="0.0"
     inkscape:pagecheckerboard="0"
     inkscape:deskcolor="#d1d1d1"
     inkscape:zoom="9.9875"
     inkscape:cx="39.949937"
     inkscape:cy="40"
     inkscape:window-width="1920"
     inkscape:window-height="1008"
     inkscape:window-x="0"
     inkscape:window-y="0"
     inkscape:window-maximized="1"
     inkscape:current-layer="svg2" />
  <g
     id="g2"
     transform="matrix(1.1428571,0,0,1.1428571,-5.7142857,-5.7142857)">
    <path
       d="M 5,5 H 75 V 75 H 5 Z"
       fill="#f5de19"
       id="path1" />
    <path
       d="m 52.0227,59.6875 c 0.5973,1.2108 1.5242,2.2284 2.674,2.936 1.1498,0.7075 2.4759,1.0764 3.826,1.064 2.725,0 4.4675,-1.3625 4.4675,-3.25 0,-2.25 -1.79,-3.055 -4.79,-4.3675 l -1.645,-0.705 c -4.75,-2.0225 -7.9,-4.555 -7.9,-9.91 0,-4.9325 3.75,-8.69 9.6325,-8.69 1.9042,-0.1372 3.8067,0.2892 5.4702,1.2259 1.6636,0.9367 3.0146,2.3423 3.8848,4.0416 L 62.5002,45.32 c -0.3353,-0.8425 -0.9185,-1.5633 -1.6726,-2.0668 -0.754,-0.5036 -1.6433,-0.7663 -2.5499,-0.7532 -0.3956,-0.0396 -0.7951,0.0036 -1.1731,0.127 -0.378,0.1233 -0.7261,0.324 -1.0222,0.5893 -0.2961,0.2653 -0.5337,0.5894 -0.6977,0.9516 -0.1639,0.3622 -0.2506,0.7546 -0.2545,1.1521 0,1.9725 1.2225,2.7725 4.045,4 l 1.645,0.705 c 5.59,2.3975 8.75,4.84 8.75,10.3325 0,5.9225 -4.6525,9.1675 -10.9,9.1675 -2.434,0.1535 -4.8605,-0.3998 -6.9873,-1.5934 -2.1268,-1.1936 -3.8632,-2.9765 -5.0002,-5.1341 z m -23.2375,0.57 c 1.0325,1.8325 1.9725,3.3825 4.2325,3.3825 2.16,0 3.525,-0.845 3.525,-4.1325 V 37.14 h 6.5775 v 22.455 c 0,6.81 -4,9.91 -9.8225,9.91 -2.0581,0.1125 -4.1021,-0.4004 -5.8633,-1.4713 -1.7612,-1.0709 -3.1571,-2.6496 -4.0042,-4.5287 z"
       fill="#000000"
       id="path2" />
  </g>
</svg>
