<svg width="80" height="80" viewBox="0 0 80 80" fill="none" xmlns="http://www.w3.org/2000/svg">
<g clip-path="url(#clip0_16_44)">
<path d="M61.25 0H18.75C8.39466 0 0 8.39466 0 18.75V61.25C0 71.6053 8.39466 80 18.75 80H61.25C71.6053 80 80 71.6053 80 61.25V18.75C80 8.39466 71.6053 0 61.25 0Z" fill="#242938"/>
<path d="M21.2172 60.525H20.5463C20.2775 63.2915 19.9019 66.6544 15.1781 66.6544H13.0041C11.7425 66.6544 11.6891 66.4647 11.6891 65.5697V51.1681C11.6891 50.2459 11.6891 49.8662 14.2119 49.8662H15.0975V49.0525C14.1312 49.1341 11.7159 49.1341 10.6153 49.1341C9.56844 49.1341 7.475 49.1341 6.5625 49.0525V49.8662H7.17969C9.24656 49.8662 9.30031 50.1644 9.30031 51.1409V65.3797C9.30031 66.3562 9.24656 66.6544 7.17969 66.6544H6.5625V67.4953H20.4925L21.2172 60.525Z" fill="white"/>
<path d="M20.7609 49.0253C20.6534 48.7 20.5997 48.5916 20.2509 48.5916C19.9019 48.5916 19.8216 48.7 19.7141 49.0253L15.3928 60.0909C15.205 60.5522 14.8828 61.3928 13.2188 61.3928V62.0709H17.3791V61.3928C16.5469 61.3928 16.0372 61.0131 16.0372 60.4706C16.0372 60.335 16.0638 60.2809 16.1175 60.0909L17.03 57.7584H22.3444L23.4181 60.525C23.4716 60.6334 23.5253 60.7691 23.5253 60.8503C23.5253 61.3928 22.5053 61.3928 21.9956 61.3928V62.0709H27.2831V61.3928H26.9072C25.6456 61.3928 25.5116 61.2031 25.3238 60.6606L20.7609 49.0253ZM19.6872 50.9509L22.0759 57.0806H17.2984L19.6872 50.9509Z" fill="white"/>
<path d="M42.2596 49.2153H25.914L25.4312 55.2906H26.0752C26.4512 50.9238 26.8537 50.0288 30.9065 50.0288C31.3896 50.0288 32.0874 50.0288 32.3558 50.0831C32.9196 50.1916 32.9196 50.49 32.9196 51.1138V65.3525C32.9196 66.2747 32.9196 66.6544 30.1015 66.6544H29.0277V67.4953C30.128 67.4138 32.839 67.4138 34.0737 67.4138C35.3083 67.4138 38.0727 67.4138 39.1733 67.4953V66.6544H38.0996C35.2815 66.6544 35.2815 66.2747 35.2815 65.3525V51.1138C35.2815 50.5713 35.2815 50.1916 35.7646 50.0831C36.0599 50.0288 36.7846 50.0288 37.2946 50.0288C41.3205 50.0288 41.723 50.9238 42.099 55.2906H42.7699L42.2596 49.2153Z" fill="white"/>
<path d="M56.6457 66.6271H55.9748C55.3036 70.7768 54.6864 72.7568 50.0967 72.7568H46.5539C45.2923 72.7568 45.2386 72.5668 45.2386 71.6718V64.4575H47.6273C50.2311 64.4575 50.5261 65.3256 50.5261 67.6309H51.1973V60.4706H50.5261C50.5261 62.7759 50.2311 63.6168 47.6273 63.6168H45.2386V57.1346C45.2386 56.2396 45.2923 56.05 46.5539 56.05H49.9895C54.0957 56.05 54.7939 57.5415 55.2232 61.3115H55.8942L55.1426 55.2362H40.1123V56.05H40.7295C42.7964 56.05 42.8498 56.3481 42.8498 57.3246V71.4821C42.8498 72.4584 42.7964 72.7568 40.7295 72.7568H40.1123V73.5975H55.5186L56.6457 66.6271Z" fill="white"/>
<path d="M64.7247 57.0534L68.4019 51.6291C68.9656 50.7612 69.8781 49.8934 72.2669 49.8662V49.0525H65.8788V49.8662C66.9525 49.8934 67.5431 50.49 67.5431 51.1137C67.5431 51.385 67.4894 51.4394 67.3016 51.7375L64.2416 56.2941L60.8063 51.0866C60.7525 51.0053 60.6181 50.7884 60.6181 50.6797C60.6181 50.3544 61.2088 49.8934 62.3359 49.8662V49.0525C61.4234 49.1341 59.4641 49.1341 58.4444 49.1341C57.6122 49.1341 55.9481 49.1069 54.955 49.0525V49.8662H55.465C56.9413 49.8662 57.4513 50.0559 57.9613 50.8153L62.8728 58.3281L58.4978 64.8644C58.1222 65.4069 57.3169 66.6544 54.6328 66.6544V67.4953H61.0209V66.6544C59.7863 66.6275 59.33 65.895 59.33 65.4069C59.33 65.1628 59.4103 65.0544 59.5984 64.7559L63.3828 59.0875L67.6234 65.5425C67.6772 65.6509 67.7578 65.7594 67.7578 65.8409C67.7578 66.1662 67.1672 66.6275 66.0131 66.6544V67.4953C66.9525 67.4137 68.9119 67.4137 69.905 67.4137C71.0322 67.4137 72.2669 67.4409 73.3941 67.4953V66.6544H72.8841C71.4884 66.6544 70.9247 66.5187 70.3613 65.6781L64.7247 57.0534Z" fill="white"/>
<path d="M20.8663 6.25C21.3381 7.1 21.8288 7.825 22.3406 8.45375C22.1066 8.41938 21.8656 8.39937 21.6147 8.40219C21.12 8.4075 20.591 8.48969 20.0178 8.67C21.0178 9.5075 21.8631 10.1188 22.6085 10.5897C21.4569 10.2219 20.2166 10.1694 18.7594 10.8609C19.8238 11.5266 20.7169 12.0081 21.4988 12.3678C20.28 12.1428 19.016 12.2453 17.6366 13.155C18.5475 13.5609 19.335 13.8656 20.0341 14.0972C18.8866 14.1372 17.7513 14.4916 16.6397 15.5459C17.6038 15.785 18.4297 15.9434 19.1563 16.0491C18.2672 16.2288 17.3947 16.6553 16.5494 17.5075C17.2044 17.6491 17.7941 17.7559 18.3338 17.8366C17.6694 18.1578 17.04 18.6553 16.4653 19.4178C17.2203 19.4763 17.8881 19.5022 18.4885 19.5047C17.7619 19.8409 17.0819 20.3722 16.475 21.2247C17.5531 21.2784 18.4538 21.2731 19.2306 21.2278C18.3769 21.5769 17.59 22.1666 16.9172 23.1863C18.2569 23.2059 19.3181 23.1416 20.2078 23.0316C19.1035 23.3316 18.081 23.9347 17.2397 25.2097C18.3219 25.2253 19.2253 25.1859 20.0016 25.1128C19.0528 25.6297 18.2378 26.4141 17.7013 27.7519C18.6781 27.5669 19.4969 27.3691 20.2019 27.1616C19.4675 27.6959 18.85 28.4466 18.4369 29.575C19.0288 29.4445 19.6163 29.295 20.1985 29.1266C19.7275 29.6959 19.3641 30.4088 19.1594 31.3431C19.7936 31.1113 20.419 30.8563 21.0344 30.5784C20.5141 31.1872 20.1169 31.9575 19.921 32.9856C20.9228 32.585 21.7378 32.2022 22.4247 31.8369C21.795 32.51 21.3266 33.3759 21.1406 34.5828C22.3606 34.0441 23.2966 33.5453 24.0575 33.0759C23.1835 33.8084 22.5116 34.7822 22.2794 36.2863C23.8735 35.5828 24.986 34.9444 25.8513 34.3538C25.4797 35.1053 25.2825 35.9856 25.3772 37.0831C26.9178 35.9013 27.8935 34.9447 28.6197 34.1019C28.5706 34.6463 28.6094 35.2381 28.7713 35.8928C29.8775 33.9925 30.9763 33.4378 32.1138 32.8038C30.3022 33.7159 30.5706 34.4025 30.5706 35.1991C31.9528 33.7438 33.88 32.2003 34.4697 31.2334C33.6813 32.4172 33.3606 33.5381 33.1531 34.5278C29.1203 36.6606 26.665 37.2178 23.9125 38.0703C24.98 38.4622 26.1244 38.8456 25.6513 39.39L24.3897 40.6484C25.196 40.3978 26.0185 40.04 26.7322 40.5291C26.6622 41.1906 25.826 41.5244 25.1125 41.91C26.3688 41.4572 26.6406 41.5619 26.971 41.6681C27.136 42.4606 26.5631 42.8869 26.19 43.4103C29.355 41.0041 33.4844 39.1031 36.3925 38.3091C40.4831 36.9316 45.7575 35.4997 47.1919 32.0078L48.631 26.2484C50.3125 24.4281 51.8594 22.5406 52.5931 20.2469C57.276 19.3409 61.0622 19.6681 65.0122 19.7694C64.6522 19.7094 52.9516 17.7269 52.9516 17.7269C49.5319 13.0484 44.4347 16.2284 42.7553 20.8503C42.3316 22.0169 39.9135 22.0172 39.2128 20.8472C36.4419 14.8813 28.0269 8.57438 20.8663 6.25Z" fill="#008080"/>
<path d="M48.4927 18.4594L48.4621 18.5084C48.3409 18.7344 48.1355 18.8888 47.8468 18.9822C47.5584 19.0753 47.1887 19.1053 46.7581 19.0866L46.4874 19.0741L46.6843 19.265C46.784 19.3613 46.8121 19.4378 46.8134 19.505C46.8146 19.5722 46.7859 19.6444 46.7212 19.7266C46.5915 19.8903 46.334 20.0684 46.0937 20.2494L46.0137 20.3047L46.069 20.3847C46.2693 20.6922 46.3612 20.9291 46.3827 21.1106C46.4043 21.2922 46.3621 21.4228 46.278 21.535C46.1102 21.76 45.7421 21.9125 45.4105 22.1009L45.3493 22.1319L45.3615 22.2056C45.3899 22.3788 45.3434 22.52 45.2199 22.6609C45.0965 22.8016 44.889 22.9359 44.6109 23.0547L44.5371 23.0853L44.5493 23.1653C44.6049 23.5356 44.7162 23.8581 44.9493 24.0634C45.1624 24.2516 45.4852 24.3009 45.8968 24.2175C45.9684 24.6122 46.0712 24.9713 46.309 25.2081C46.5496 25.4478 46.9312 25.5188 47.4409 25.3863C47.5555 25.6628 47.7234 25.8597 47.9146 25.9894C48.1246 26.1313 48.3993 26.1884 48.6249 26.2588L48.7587 26.1147C48.5346 26.045 48.2037 25.9375 48.0252 25.8169C47.8468 25.6963 47.7018 25.5309 47.6009 25.245L47.5699 25.1463L47.4715 25.1772C46.9474 25.3381 46.6568 25.2656 46.4565 25.0663C46.2565 24.8672 46.144 24.5069 46.0752 24.0881L46.0568 23.9775L45.9459 24.0081C45.514 24.1209 45.2587 24.0634 45.0846 23.9097C44.9221 23.7663 44.8259 23.5122 44.7709 23.1962C45.0212 23.0806 45.2359 22.9538 45.3737 22.7963C45.5037 22.647 45.57 22.4526 45.5584 22.255C45.8637 22.0869 46.2321 21.9425 46.4443 21.6581C46.5552 21.5094 46.6127 21.3141 46.5859 21.0863C46.5612 20.8784 46.4596 20.6391 46.2843 20.3541C46.4996 20.1953 46.733 20.0366 46.8812 19.8494C46.9634 19.7453 47.0252 19.6306 47.0224 19.4988C47.0212 19.4263 46.9515 19.3603 46.9118 19.2894C47.2862 19.2947 47.6271 19.27 47.9084 19.1791C48.2049 19.0831 48.4377 18.9084 48.5912 18.6684C49.0343 18.6706 49.4931 18.7681 49.9571 18.8281C50.4337 18.8903 50.9187 18.9069 51.378 18.7053L51.2921 18.5147C50.8855 18.6928 50.4515 18.6856 49.9877 18.6253C49.524 18.565 49.0409 18.4556 48.5543 18.4591L48.4927 18.4594Z" fill="white"/>
<path d="M50.2144 18.3825C50.2144 18.6143 50.1223 18.8366 49.9584 19.0005C49.7945 19.1645 49.5722 19.2565 49.3404 19.2565C49.1086 19.2565 48.8862 19.1645 48.7223 19.0005C48.5584 18.8366 48.4663 18.6143 48.4663 18.3825C48.4663 18.1507 48.5584 17.9283 48.7223 17.7644C48.8862 17.6005 49.1086 17.5084 49.3404 17.5084C49.5722 17.5084 49.7945 17.6005 49.9584 17.7644C50.1223 17.9283 50.2144 18.1507 50.2144 18.3825Z" fill="white" stroke="white" stroke-width="0.0413125"/>
<path d="M52.8254 17.5625C52.0404 18.5834 51.8432 18.3197 51.3654 18.4906L51.2854 18.5219L51.2979 18.6078C51.4816 19.6331 52.0894 19.959 52.5638 20.3319L52.59 20.2487L52.7163 20.2247C52.241 19.8512 51.7207 19.5347 51.5316 18.6631C51.8794 18.5809 52.2116 18.6859 52.9525 17.7219L52.8254 17.5625ZM22.6075 10.5875C24.0907 11.5069 26.5313 12.455 28.0988 13.4456C28.961 13.9947 29.7354 14.5415 30.3379 15.0144C30.9404 15.4872 31.386 15.9753 31.55 16.134C31.7141 16.2928 31.825 16.2178 31.716 16.0109C31.6069 15.804 31.0704 15.3262 30.461 14.8484C29.8516 14.3706 29.0766 13.8256 28.2094 13.2734C26.4744 12.1687 24.4385 11.1809 22.6079 10.5872M22.3407 8.4531C22.9625 8.59685 23.88 9.12685 24.9 9.69435C25.9204 10.2615 27.0325 10.9597 28.05 11.6381C29.0675 12.3169 29.8519 12.9109 30.4791 13.3897C31.0747 13.899 31.3688 14.2294 31.4829 14.2284C31.4985 14.2315 31.5138 14.2315 31.5382 14.2284C31.5561 14.2251 31.5731 14.2178 31.588 14.2072C31.6028 14.1965 31.6151 14.1828 31.6241 14.1669C31.6317 14.1528 31.6361 14.1372 31.6372 14.1213C31.6383 14.1053 31.6359 14.0893 31.6304 14.0744C31.6238 14.0547 31.6204 14.044 31.6119 14.0315C31.5782 13.9809 31.5269 13.9334 31.4519 13.8653C31.3022 13.7287 31.0544 13.5281 30.7385 13.2872C30.1063 12.8047 29.1879 12.1472 28.1666 11.4659C27.146 10.785 26.026 10.0809 24.9988 9.50967C24.6332 9.37435 22.8422 8.42717 22.3407 8.45342M21.4913 12.3681C23.3944 13.145 26.1022 14.0575 27.9094 15.1934C28.8807 15.8103 29.7263 16.4247 30.3579 16.9284C30.6235 17.139 30.882 17.3585 31.1329 17.5865C31.3288 17.7665 31.4388 17.9297 31.5022 17.974C31.6344 18.0678 31.736 18.0053 31.6744 17.8575C31.6282 17.7456 31.475 17.6169 31.2744 17.4328C31.0744 17.2484 30.8057 17.0228 30.4869 16.7684C29.696 16.1411 28.8725 15.556 28.02 15.0153C26.0644 13.7731 23.7263 12.6812 21.4913 12.3681ZM20.0266 14.0947C21.5097 14.0956 24.5741 15.4534 25.8657 16.1337C27.9594 17.2506 29.8641 18.6862 30.9163 19.6897C31.0332 19.8009 31.2038 19.7028 31.07 19.5481C30.0925 18.4153 28.0735 17.0803 25.9638 15.9553C23.8541 14.8303 21.6704 14.0928 20.0266 14.0947ZM19.1694 16.0484C21.3994 16.3747 24.0725 17.275 26.02 18.2503C27.1069 18.8022 28.0763 19.3931 28.8194 19.9175C29.3389 20.2879 29.8173 20.7127 30.2466 21.1847C30.3819 21.3375 30.5435 21.344 30.4188 21.074C30.2941 20.804 29.6891 20.2762 28.9363 19.7453C28.1832 19.214 27.2082 18.6219 26.1125 18.0656C23.9219 16.9531 21.4269 16.0781 19.1694 16.0484ZM19.9054 17.7081C19.3516 17.66 18.8529 17.7737 18.3447 17.8372C20.326 17.6512 23.0969 18.5612 24.9441 19.4122C27.1197 20.4325 28.9263 21.8328 29.7919 22.7222C29.9272 22.8612 30.0232 22.684 29.9519 22.5928C29.146 21.564 27.2269 20.2515 25.03 19.2215C23.3825 18.4494 21.5675 17.8531 19.9054 17.7081ZM18.4975 19.494C20.4475 19.6384 23.0582 20.1056 24.8869 20.945C26.726 21.8053 28.1219 22.9206 28.8241 23.5534C28.9322 23.6509 29.1232 23.5819 28.9716 23.4059C28.331 22.6612 26.8404 21.6309 24.9791 20.7606C23.1175 19.8897 20.856 19.3322 18.4975 19.494ZM20.2488 21.1169C19.8372 21.1028 19.6444 21.18 19.2475 21.2228C20.571 21.2809 22.6741 21.6331 23.8354 22.0272C25.3425 22.5503 26.5819 23.3378 27.2869 23.9528C27.4229 24.0715 27.5244 23.9122 27.4344 23.8112C26.7741 23.0706 25.4325 22.3612 23.9032 21.8303C22.7563 21.4325 21.4829 21.1584 20.2488 21.1169ZM20.1919 23.0359C23.021 23.2269 24.7319 23.7253 26.0432 24.9C26.1413 24.9881 26.2963 24.8669 26.1907 24.7525C24.845 23.2944 22.1957 22.8881 20.1919 23.0359ZM22.3704 24.7353C21.5129 24.6665 20.7954 24.854 20.0138 25.114C22.301 24.7494 23.2519 24.9244 24.985 25.7381C25.1825 25.8309 25.171 25.6122 25.0835 25.5597C24.1629 25.0065 23.2279 24.8044 22.3704 24.7353ZM22.2891 26.3284C21.4782 26.4003 20.7894 26.6787 20.2219 27.1406C22.4869 26.2675 23.1132 26.4412 24.8454 26.9322C25.0735 26.9969 25.0025 26.7775 24.9132 26.7415C23.8757 26.3259 23.1 26.2565 22.2891 26.3284ZM26.7769 27.7312C25.5685 27.6006 24.2069 27.7472 23.0119 27.9653C21.8169 28.1831 20.7894 28.6259 20.2091 29.0975C22.196 28.2584 22.5582 28.2603 23.0491 28.1681C24.2263 27.9534 25.3929 27.8697 26.7647 27.9344C26.8891 27.9403 26.8825 27.7428 26.7769 27.7312ZM27.4782 28.7094C26.1688 28.66 24.816 28.9844 23.6457 29.3187C22.4754 29.6531 21.6069 30.1094 21.0341 30.575C22.1932 30.0178 23.2716 29.6406 23.701 29.5156C24.8547 29.1856 26.0188 28.9 27.4907 28.9187C27.605 28.9203 27.6791 28.7172 27.4782 28.7094ZM28.5479 29.5147C27.3144 29.6969 26.0213 30.0612 24.8935 30.4437C23.7663 30.8262 22.9638 31.2806 22.4404 31.8244C23.781 31.0547 24.5185 30.7847 24.955 30.6344C26.0688 30.2565 27.1085 29.9937 28.5847 29.7178C28.7619 29.6847 28.6197 29.504 28.5479 29.5147ZM29.175 30.5422C26.7016 30.9362 25.0985 32.0034 24.0797 33.0619C25.6588 31.8722 26.7572 31.2328 29.2182 30.7453C29.3741 30.714 29.3269 30.5178 29.175 30.5422ZM30.3807 31.4462C27.8925 31.8294 26.4579 33.3419 25.8604 34.3403C27.4344 32.7678 28.6594 31.9119 30.4235 31.6494C30.6022 31.6228 30.5566 31.419 30.3807 31.4462ZM31.1313 32.234C30.7435 32.2825 30.2157 32.5575 29.7166 32.874C29.2175 33.1906 28.8413 33.5756 28.6166 34.0719C29.2179 33.4515 29.4582 33.2837 29.8272 33.0462C30.2477 32.7809 30.7032 32.5759 31.1807 32.4372C31.3644 32.3837 31.2254 32.2225 31.1313 32.234Z" fill="white"/>
<path d="M50.2144 18.3825C50.2144 18.6143 50.1223 18.8366 49.9584 19.0005C49.7945 19.1645 49.5722 19.2565 49.3404 19.2565C49.1086 19.2565 48.8862 19.1645 48.7223 19.0005C48.5584 18.8366 48.4663 18.6143 48.4663 18.3825C48.4663 18.1507 48.5584 17.9283 48.7223 17.7644C48.8862 17.6005 49.1086 17.5084 49.3404 17.5084C49.5722 17.5084 49.7945 17.6005 49.9584 17.7644C50.1223 17.9283 50.2144 18.1507 50.2144 18.3825Z" fill="white" stroke="white" stroke-width="0.0413125"/>
<path d="M50.2144 18.3825C50.2144 18.6143 50.1223 18.8366 49.9584 19.0005C49.7945 19.1645 49.5722 19.2565 49.3404 19.2565C49.1086 19.2565 48.8862 19.1645 48.7223 19.0005C48.5584 18.8366 48.4663 18.6143 48.4663 18.3825C48.4663 18.1507 48.5584 17.9283 48.7223 17.7644C48.8862 17.6005 49.1086 17.5084 49.3404 17.5084C49.5722 17.5084 49.7945 17.6005 49.9584 17.7644C50.1223 17.9283 50.2144 18.1507 50.2144 18.3825Z" fill="#37C871" stroke="white" stroke-width="0.0413125"/>
</g>
<defs>
<clipPath id="clip0_16_44">
<rect width="80" height="80" fill="white"/>
</clipPath>
</defs>
</svg>
