<svg width="80" height="80" viewBox="0 0 80 80" fill="none" xmlns="http://www.w3.org/2000/svg">
<g clip-path="url(#clip0_16_22)">
<path d="M14.1666 0H65.8334C73.6666 0 80 6.48544 80 14.5066V65.3654C80 73.3866 73.6666 79.872 65.8334 79.872H14.1666C6.33344 79.872 0 73.3866 0 65.3654V14.5066C0 6.48544 6.33344 0 14.1666 0Z" fill="#00005B"/>
<path d="M19 56.0128V20.8896C19 20.6506 19.1 20.5142 19.3334 20.5142L19.8172 20.5133L20.1916 20.5101L20.4556 20.505L20.7369 20.4976L21.0391 20.4867L21.2 20.48C21.5 20.4672 21.8047 20.4592 22.1156 20.4525L23.0703 20.432C23.1789 20.4294 23.2883 20.4265 23.3988 20.423L23.7331 20.4118C24.0331 20.4008 24.3406 20.3922 24.6556 20.3862L25.6222 20.3686L26.2913 20.3536L26.6334 20.3434C27.3222 20.321 27.9962 20.3133 28.6653 20.3107L29.6666 20.3094C32.4 20.3094 34.6666 20.6506 36.5334 21.3674C38.2067 21.9494 39.7324 22.9055 41 24.1664C42.0739 25.2701 42.9037 26.5971 43.4334 28.0576C43.9334 29.4912 44.2 30.959 44.2 32.495C44.2 35.4305 43.5333 37.854 42.2 39.7654C40.8666 41.6768 39 43.1104 36.8334 43.9296C34.6422 44.7546 32.2331 45.0688 29.6059 45.089H28.6531L28.2822 45.0851L28.0444 45.0794L27.9044 45.0733L27.7787 45.0656L27.6666 45.056C27.5946 45.0489 27.5225 45.0433 27.4503 45.0394L27.2878 45.032L27.1097 45.0272L26.8125 45.0231L26.2334 45.0218V55.9786C26.2666 56.2176 26.1 56.4224 25.8666 56.4566H19.4C19.1334 56.4566 19 56.32 19 56.0128ZM26.2666 27.1018V38.5706L26.6584 38.5994C26.9606 38.6231 27.2635 38.6363 27.5666 38.639H29.3334C30.6334 38.639 31.9334 38.4342 33.1666 38.0246C34.2334 37.7174 35.1666 37.0688 35.9 36.2154C36.6 35.3622 36.9334 34.2016 36.9334 32.6998C36.9647 31.6331 36.6987 30.5793 36.1666 29.6618C35.6238 28.8115 34.8663 28.1491 33.9534 27.7648L33.8334 27.7162C32.6 27.2042 31.2666 26.9994 29.9 27.0336L29.1294 27.0346L28.7672 27.0368L28.4212 27.0416L28.0928 27.0493C27.9326 27.0536 27.7795 27.0597 27.6334 27.0678C27.5618 27.0642 27.4901 27.0612 27.4184 27.0589L27.2188 27.0544L27.125 27.0538L26.9481 27.0547L26.7875 27.0592L26.7131 27.0624L26.5766 27.0704L26.4566 27.08L26.4025 27.0851L26.3078 27.0963L26.2666 27.1018ZM48.8666 29.0816H54.7C55.0147 29.0816 55.2703 29.2947 55.3819 29.5773L55.4 29.6278C55.5 29.9008 55.5666 30.1738 55.6 30.481C55.6666 30.8224 55.7334 31.1978 55.7666 31.5392L55.7947 31.8694C55.8166 32.1514 55.8334 32.4512 55.8334 32.768C56.7881 31.6268 57.9329 30.668 59.2147 29.9363L59.4 29.8326C60.9334 28.945 62.7 28.5014 64.4666 28.5014C64.7 28.4672 64.9 28.6378 64.9334 28.8768V35.6694C64.9334 35.9424 64.7666 36.0448 64.4 36.0448C63.28 36.0128 62.1312 36.1002 61.0344 36.3338L60.8 36.3862C59.8333 36.591 58.9 36.8982 58 37.3078C57.3666 37.615 56.7666 38.0246 56.3 38.5706V55.9786C56.3 56.32 56.1666 56.4566 55.8666 56.4566H49.3C49.0334 56.4906 48.8 56.32 48.7666 56.0471V37.0006C48.7666 36.1814 48.7666 35.328 48.7334 34.4406L48.7134 33.775L48.6866 32.4438C48.6816 32.222 48.6749 32.0001 48.6666 31.7782C48.6666 30.993 48.6 30.2422 48.5334 29.457C48.5 29.2864 48.6 29.1158 48.7666 29.0816C48.7666 29.0525 48.8156 29.0483 48.8506 29.0688L48.8666 29.0816Z" fill="#9999FF"/>
</g>
<defs>
<clipPath id="clip0_16_22">
<rect width="80" height="80" fill="white"/>
</clipPath>
</defs>
</svg>
