<?xml version="1.0" encoding="UTF-8" standalone="no"?>
<svg
   width="80"
   height="80"
   viewBox="0 0 80 80"
   fill="none"
   version="1.1"
   id="svg8"
   sodipodi:docname="python.svg"
   inkscape:version="1.4 (e7c3feb100, 2024-10-09)"
   xmlns:inkscape="http://www.inkscape.org/namespaces/inkscape"
   xmlns:sodipodi="http://sodipodi.sourceforge.net/DTD/sodipodi-0.dtd"
   xmlns="http://www.w3.org/2000/svg"
   xmlns:svg="http://www.w3.org/2000/svg">
  <sodipodi:namedview
     id="namedview8"
     pagecolor="#ffffff"
     bordercolor="#000000"
     borderopacity="0.25"
     inkscape:showpageshadow="2"
     inkscape:pageopacity="0.0"
     inkscape:pagecheckerboard="0"
     inkscape:deskcolor="#d1d1d1"
     inkscape:zoom="9.4"
     inkscape:cx="40"
     inkscape:cy="39.946809"
     inkscape:window-width="1920"
     inkscape:window-height="1008"
     inkscape:window-x="0"
     inkscape:window-y="0"
     inkscape:window-maximized="1"
     inkscape:current-layer="g8" />
  <g
     id="g8"
     transform="translate(-0.74468085,-1.4893617)">
    <g
       id="g9"
       transform="matrix(1.2366337,0,0,1.2366337,-8.7217828,-7.9765023)">
      <path
         d="m 39.6195,7.65504 c -2.6387,0.0125 -5.1575,0.23687 -7.375,0.62937 -6.5312,1.15375 -7.7162,3.56879 -7.7162,8.02309 v 5.8819 H 39.9614 V 24.15 H 18.7358 c -4.485,0 -8.4125,2.6957 -9.6413,7.8257 -1.4175,5.8781 -1.48,9.5468 0,15.685 1.0969,4.5693 3.7169,7.8243 8.2025,7.8243 h 5.3069 v -7.0512 c 0,-5.0944 4.4068,-9.5875 9.6412,-9.5875 h 15.4157 c 4.2912,0 7.7162,-3.5338 7.7162,-7.8425 V 16.3082 c 0,-4.1832 -3.5287,-7.32504 -7.7162,-8.02316 -2.6525,-0.44125 -5.4032,-0.64188 -8.0413,-0.63 z m -8.3462,4.73066 c 1.5937,0 2.8962,1.3231 2.8962,2.9506 0,1.6206 -1.3019,2.9312 -2.8962,2.9312 -1.6,0 -2.8957,-1.3106 -2.8957,-2.9312 -6e-4,-1.6275 1.2957,-2.9506 2.8957,-2.9506 z"
         fill="url(#paint0_linear_16_58)"
         id="path1"
         style="fill:url(#paint0_linear_16_58)" />
      <path
         d="m 57.3014,24.15 v 6.8538 c 0,5.3125 -4.505,9.7844 -9.6412,9.7844 H 32.2446 c -4.2225,0 -7.7163,3.6143 -7.7163,7.8431 v 14.6969 c 0,4.1818 3.6363,6.6425 7.7163,7.8418 4.885,1.4357 9.57,1.6957 15.4156,0 3.885,-1.1256 7.7162,-3.3893 7.7162,-7.8418 v -5.8825 h -15.415 v -1.9613 h 23.1325 c 4.485,0 6.1575,-3.1281 7.7175,-7.8244 1.6113,-4.8343 1.5419,-9.4837 0,-15.685 -1.1087,-4.4656 -3.2256,-7.8256 -7.7175,-7.8256 z m -8.6706,37.2169 c 1.6006,0 2.8963,1.3106 2.8963,2.9325 0,1.6263 -1.2963,2.9494 -2.8963,2.9494 -1.5937,0 -2.8956,-1.3231 -2.8956,-2.9494 0,-1.6219 1.3019,-2.9325 2.8956,-2.9325 z"
         fill="url(#paint1_linear_16_58)"
         id="path2"
         style="fill:url(#paint1_linear_16_58)" />
    </g>
  </g>
  <defs
     id="defs8">
    <linearGradient
       id="paint0_linear_16_58"
       x1="6.46067"
       y1="9.49418"
       x2="42.0568"
       y2="39.8504"
       gradientUnits="userSpaceOnUse">
      <stop
         stop-color="#5A9FD4"
         id="stop3" />
      <stop
         offset="1"
         stop-color="#306998"
         id="stop4" />
    </linearGradient>
    <linearGradient
       id="paint1_linear_16_58"
       x1="55.4495"
       y1="58.7203"
       x2="42.6841"
       y2="40.8189"
       gradientUnits="userSpaceOnUse">
      <stop
         stop-color="#FFD43B"
         id="stop5" />
      <stop
         offset="1"
         stop-color="#FFE873"
         id="stop6" />
    </linearGradient>
    <radialGradient
       id="paint2_radial_16_58"
       cx="-0.26519832"
       cy="0.39214084"
       r="1"
       gradientUnits="userSpaceOnUse"
       gradientTransform="matrix(0,-4.01145,17.6337,0,40.0525,74.6333)"
       fx="-0.26519832"
       fy="0.39214084">
      <stop
         stop-color="#B8B8B8"
         stop-opacity="0.498"
         id="stop7" />
      <stop
         offset="1"
         stop-color="#7F7F7F"
         stop-opacity="0"
         id="stop8" />
    </radialGradient>
  </defs>
</svg>
