<?xml version="1.0" encoding="UTF-8" standalone="no"?>
<svg
   width="80"
   height="80"
   viewBox="0 0 80 80"
   fill="none"
   version="1.1"
   id="svg4"
   sodipodi:docname="react.svg"
   inkscape:version="1.4 (e7c3feb100, 2024-10-09)"
   xmlns:inkscape="http://www.inkscape.org/namespaces/inkscape"
   xmlns:sodipodi="http://sodipodi.sourceforge.net/DTD/sodipodi-0.dtd"
   xmlns="http://www.w3.org/2000/svg"
   xmlns:svg="http://www.w3.org/2000/svg">
  <defs
     id="defs4" />
  <sodipodi:namedview
     id="namedview4"
     pagecolor="#ffffff"
     bordercolor="#000000"
     borderopacity="0.25"
     inkscape:showpageshadow="2"
     inkscape:pageopacity="0.0"
     inkscape:pagecheckerboard="0"
     inkscape:deskcolor="#d1d1d1"
     inkscape:zoom="9.4"
     inkscape:cx="40"
     inkscape:cy="39.946809"
     inkscape:window-width="1920"
     inkscape:window-height="1008"
     inkscape:window-x="0"
     inkscape:window-y="0"
     inkscape:window-maximized="1"
     inkscape:current-layer="svg4" />
  <g
     id="g4"
     transform="matrix(1.1428571,0,0,1.1428571,-5.714284,-5.7129498)">
    <path
       d="m 40,46.1851 c 3.4518,0 6.25,-2.7983 6.25,-6.25 0,-3.4518 -2.7982,-6.25 -6.25,-6.25 -3.4518,0 -6.25,2.7982 -6.25,6.25 0,3.4517 2.7982,6.25 6.25,6.25 z"
       fill="#00d8ff"
       id="path1" />
    <path
       d="m 40,54.265 c -7.5121,0.1811 -15.0054,-0.8315 -22.2,-3 C 14.4766,50.2115 11.3768,48.5519 8.6575,46.37 7.61947,45.625 6.75506,44.6641 6.1237,43.5533 5.49233,42.4425 5.10898,41.2081 5,39.935 5,35.8025 9.54,31.7525 17.145,29.1025 24.5323,26.7563 32.2499,25.6184 40,25.7325 c 7.6467,-0.1057 15.2611,1.0118 22.555,3.31 3.2002,1.0216 6.1946,2.6009 8.845,4.665 1.0188,0.7118 1.8692,1.6382 2.4912,2.7142 0.622,1.076 1.0005,2.2753 1.1088,3.5133 0,4.295 -5.075,8.6475 -13.25,11.3525 C 54.6948,53.386 47.3596,54.3901 40,54.265 Z m 0,-25.5425 c -7.4146,-0.0969 -14.7974,0.985 -21.8725,3.205 -7,2.4425 -10.1375,5.7825 -10.1375,8 0,2.32 3.3725,5.9675 10.7775,8.5 C 25.6501,50.4926 32.8165,51.4537 40,51.275 47.041,51.401 54.0598,50.4483 60.8125,48.45 68.5,45.9025 72,42.25 72,39.935 71.8734,39.1408 71.5837,38.3813 71.1492,37.7045 70.7146,37.0277 70.1446,36.4482 69.475,36.0025 67.1042,34.1707 64.4291,32.7709 61.5725,31.8675 54.5947,29.6785 47.3123,28.6168 40,28.7225 Z"
       fill="#00d8ff"
       id="path2" />
    <path
       d="m 25.8,71.1075 c -1.1662,0.0267 -2.3187,-0.2563 -3.34,-0.82 -3.58,-2.065 -4.82,-8.02 -3.3175,-15.9325 1.6585,-7.5717 4.5288,-14.8259 8.5,-21.4825 3.7277,-6.6766 8.4987,-12.7145 14.1325,-17.885 2.4837,-2.2622 5.3478,-4.0675 8.46,-5.33247 1.1263,-0.52614 2.3543,-0.79883 3.5975,-0.79883 1.2432,0 2.4712,0.27269 3.5975,0.79883 3.7225,2.14497 4.955,8.71497 3.2175,17.14747 -1.7075,7.1615 -4.5034,14.0187 -8.29,20.3325 -3.5962,6.5981 -8.217,12.5834 -13.69,17.7325 -2.573,2.352 -5.5592,4.2074 -8.8075,5.4725 -1.3001,0.4839 -2.673,0.7434 -4.06,0.7675 z m 4.4325,-36.75 c -3.7878,6.3743 -6.5387,13.3099 -8.15,20.5475 -1.3825,7.2875 -0.055,11.67 1.875,12.785 2,1.1575 6.855,0.06 12.75,-5.09 5.2254,-4.9323 9.6359,-10.6618 13.0675,-16.975 3.6273,-6.0362 6.3092,-12.5921 7.9525,-19.44 1.635,-7.9375 0.2225,-12.7975 -1.7825,-13.9525 -0.7516,-0.2875 -1.5545,-0.4161 -2.3583,-0.3778 -0.8038,0.0383 -1.5909,0.2427 -2.3117,0.6003 -2.7707,1.1437 -5.318,2.7669 -7.525,4.795 -5.3822,4.9531 -9.9395,10.7332 -13.5,17.1225 z"
       fill="#00d8ff"
       id="path3" />
    <path
       d="m 54.1927,71.1399 c -3.3875,0 -7.69,-2.05 -12.17,-5.9025 C 36.2908,60.0193 31.4392,53.9098 27.6552,47.1449 23.7329,40.5804 20.8853,33.431 19.2202,25.9674 c -0.7205,-3.2839 -0.8542,-6.6694 -0.395,-10 0.1079,-1.2351 0.4848,-2.4316 1.1041,-3.5056 0.6193,-1.0741 1.466,-1.9997 2.4809,-2.71185 3.7175,-2.1525 10.025,0.06 16.4625,5.77495 5.3515,5.0555 9.896,10.9018 13.475,17.335 3.9201,6.4112 6.7976,13.4041 8.525,20.7175 0.7528,3.4043 0.8689,6.9185 0.3425,10.365 -0.1248,1.2712 -0.5232,2.5003 -1.1679,3.6029 -0.6448,1.1026 -1.5205,2.0525 -2.5671,2.7846 -1.005,0.5557 -2.1394,0.8352 -3.2875,0.81 z m -23.95,-25.5 c 3.6304,6.4649 8.2648,12.312 13.73,17.3225 5.6225,4.8375 10.0825,5.8775 12,4.75 2,-1.1625 3.475,-5.9075 1.955,-13.585 -1.6648,-6.9828 -4.4248,-13.6579 -8.1775,-19.7775 -3.4154,-6.1571 -7.7532,-11.7553 -12.8625,-16.6 -6.06,-5.38 -10.975,-6.5825 -12.9775,-5.4225 -0.6238,0.5076 -1.1358,1.1387 -1.5036,1.8538 -0.3679,0.7151 -0.5837,1.4986 -0.6339,2.3012 -0.3972,2.9703 -0.2677,5.9873 0.3825,8.9125 1.6022,7.1374 4.3332,13.9734 8.09,20.25 z"
       fill="#00d8ff"
       id="path4" />
  </g>
</svg>
